<svg xmlns="http://www.w3.org/2000/svg" width="217.85" height="50" viewBox="0 0 217.85 50"><defs><style>.a{fill:#fff;}</style></defs><g transform="translate(0.009)"><path class="a" d="M36.371,0H29.678a1.605,1.605,0,0,0-1.706,1.5L19.1,40.735h-.289L9.915,1.5A1.605,1.605,0,0,0,8.209,0H1.516C.23,0-.243.551.1,1.627L11.148,48.5A1.646,1.646,0,0,0,12.933,50H25.059a1.67,1.67,0,0,0,1.706-1.5L37.789,1.627C38.025.551,37.552,0,36.371,0Z" transform="translate(0 0)"/><path class="a" d="M186.077,0H162.8a1.322,1.322,0,0,0-1.5,1.5V48.5a1.322,1.322,0,0,0,1.5,1.5h23.281q1.417,0,1.417-1.5V43.648q0-1.5-1.417-1.5H171.2q-.866,0-.866-.787V33.071q0-.787.866-.787h9.37a1.322,1.322,0,0,0,1.5-1.5v-4.7a1.322,1.322,0,0,0-1.5-1.5H171.2q-.866,0-.866-.787V8.609q0-.787.866-.787h14.882q1.417,0,1.417-1.5V1.5Q187.534,0,186.077,0Z" transform="translate(-118.971)"/><path class="a" d="M305.511,31v-.289q6.339-2.638,6.352-10.682V11.68c0-3.7-1.05-6.588-3.123-8.609C306.639,1.024,303.752,0,300.051,0H283.1a1.322,1.322,0,0,0-1.5,1.5V48.5a1.322,1.322,0,0,0,1.5,1.5h6.063a1.322,1.322,0,0,0,1.5-1.5V33.1q0-.787.866-.787H296.3l7.113,16.168a2.083,2.083,0,0,0,.919,1.207,4.491,4.491,0,0,0,1.864.289h5.774c1.234,0,1.627-.577,1.207-1.706Zm-2.7-10.367a3.988,3.988,0,0,1-1.076,3.1,4.983,4.983,0,0,1-3.359.971h-6.956a.7.7,0,0,1-.787-.787V8.609a.7.7,0,0,1,.787-.787H298.4a4.893,4.893,0,0,1,3.36,1,4.206,4.206,0,0,1,1.076,3.2V20.63Z" transform="translate(-207.696 0)"/><path class="a" d="M428.159,0H422.1a1.322,1.322,0,0,0-1.5,1.5V48.5a1.322,1.322,0,0,0,1.5,1.5h6.063a1.322,1.322,0,0,0,1.5-1.5V1.5A1.322,1.322,0,0,0,428.159,0Z" transform="translate(-310.213)"/><path class="a" d="M490.021,7.822h14.3q1.417,0,1.417-1.5V1.5q0-1.5-1.417-1.5H481.6a1.322,1.322,0,0,0-1.5,1.5V48.5a1.322,1.322,0,0,0,1.5,1.5h6.063a1.322,1.322,0,0,0,1.5-1.5V33.1q0-.787.866-.787h9.37q1.5,0,1.5-1.575V25.984a1.322,1.322,0,0,0-1.5-1.5h-9.37a.766.766,0,0,1-.866-.866V8.609Q489.155,7.822,490.021,7.822Z" transform="translate(-354.096)"/><path class="a" d="M747.833,0H741.8a1.322,1.322,0,0,0-1.5,1.5V48.5a1.322,1.322,0,0,0,1.5,1.5h6.037a1.322,1.322,0,0,0,1.5-1.5V1.5A1.322,1.322,0,0,0,747.833,0Z" transform="translate(-546.003)"/><path class="a" d="M601.9,1.5A1.646,1.646,0,0,0,600.116,0H587.99a1.67,1.67,0,0,0-1.706,1.5l-11.05,46.877C575,49.475,575.47,50,576.651,50h6.693a1.605,1.605,0,0,0,1.706-1.5l2.6-11.47H600.51l2.6,11.47a1.605,1.605,0,0,0,1.706,1.5h6.693c1.286,0,1.759-.551,1.417-1.627Zm-12.52,27.9,4.567-20.131h.289L598.8,29.4Z" transform="translate(-424.217)"/><path class="a" d="M806.842,160.8v5.2a1.322,1.322,0,0,1-1.5,1.5H800.1a1.322,1.322,0,0,1-1.5-1.5v-5.2a1.322,1.322,0,0,1,1.5-1.5h5.249A1.322,1.322,0,0,1,806.842,160.8Z" transform="translate(-589 -117.489)"/></g></svg>