<svg id="Layer_1" data-name="Layer 1" xmlns="http://www.w3.org/2000/svg" viewBox="0 0 511.95 117.5">
    <defs>
        <style>.cls-1{fill:#ff576d;}</style>
    </defs>
    <title>VER_Concept_V10</title>
    <path class="cls-1"
          d="M58.88,117.5H30.37A3.87,3.87,0,0,1,26.19,114L.24,3.85Q-.93,0,3.59,0H19.32q3.35,0,4,3.51L44.21,95.74h.67L65.74,3.51Q66.41,0,69.76,0H85.49q4.18,0,3.35,3.85L62.9,114q-.84,3.51-4,3.51"/>
    <path class="cls-1"
          d="M157.75,117.5H103q-3.51,0-3.51-3.51V3.51Q99.5,0,103,0h54.73q3.35,0,3.35,3.51V14.9q0,3.51-3.35,3.51h-35q-2,0-2,1.84V55.93c0,1.23.67,1.84,2,1.84h22q3.51,0,3.51,3.52v11q0,3.52-3.51,3.52h-22q-2,0-2,1.84V97.25q0,1.84,2,1.84h35q3.35,0,3.35,3.51V114q0,3.51-3.35,3.51"/>
    <path class="cls-1"
          d="M191.38,117.5H177.16q-3.52,0-3.52-3.51V3.52q0-3.51,3.52-3.52H217Q230,0,237.41,7.2t7.36,20.25V47.09q0,18.92-14.9,25.11v.67l17.91,40.62q1.51,4-2.84,4H231.39a10.36,10.36,0,0,1-4.35-.67,5,5,0,0,1-2.18-2.84L208.12,76H196.91q-2,0-2,1.84V114q0,3.51-3.52,3.51M196.74,58h16.4q5.35,0,7.86-2.26t2.51-7.28V28.29q0-5.18-2.51-7.53t-7.86-2.34h-16.4a1.63,1.63,0,0,0-1.84,1.84V56.16A1.63,1.63,0,0,0,196.74,58"/>
    <path class="cls-1"
          d="M280.7,3.52V114q0,3.51-3.52,3.51H263q-3.52,0-3.52-3.51V3.52Q259.45,0,263,0h14.22q3.52,0,3.52,3.52"/>
    <path class="cls-1"
          d="M313.9,117.5H299.67q-3.51,0-3.51-3.51V3.51q0-3.51,3.51-3.51h53.39q3.35,0,3.34,3.51V14.9q0,3.51-3.34,3.51H319.42q-2,0-2,1.84V55.51a1.77,1.77,0,0,0,2,2h22Q345,57.52,345,61V72.25q0,3.68-3.51,3.68h-22q-2,0-2,1.84V114q0,3.51-3.52,3.51"/>
    <path class="cls-1"
          d="M477.86,3.52V114q0,3.51-3.52,3.51H460.12q-3.51,0-3.51-3.51V3.52q0-3.51,3.51-3.52h14.23q3.52,0,3.52,3.52"/>
    <path class="cls-1"
          d="M512,100.2v13.44q0,3.86-3.86,3.86H494.56q-3.86,0-3.86-3.86V100.2q0-3.86,3.86-3.86H508.1q3.86,0,3.86,3.86"/>
    <path class="cls-1"
          d="M443.53,113.65,417.58,3.51A3.87,3.87,0,0,0,413.4,0H384.88q-3.17,0-4,3.51L354.93,113.65q-.83,3.85,3.35,3.85H374q3.35,0,4-3.51l6.1-27h30.2l6.1,27q.67,3.51,4,3.51h15.73q4.52,0,3.35-3.85M388.19,69.06l10.7-47.3h.67l10.7,47.3Z"/>
</svg>